<mxfile host="app.diagrams.net" agent="Mozilla/5.0 (Macintosh; Intel Mac OS X 10.15; rv:135.0) Gecko/20100101 Firefox/135.0" version="26.0.13">
  <diagram name="Page-1" id="LA_W_VMblXVy_zGkn8cw">
    <mxGraphModel dx="1530" dy="1015" grid="1" gridSize="10" guides="1" tooltips="1" connect="1" arrows="1" fold="1" page="1" pageScale="1" pageWidth="850" pageHeight="1100" math="0" shadow="0">
      <root>
        <mxCell id="0" />
        <mxCell id="1" parent="0" />
        <mxCell id="ubF6ICqTXpGwGPpLcvCl-12" style="edgeStyle=orthogonalEdgeStyle;rounded=0;orthogonalLoop=1;jettySize=auto;html=1;entryX=0.5;entryY=0;entryDx=0;entryDy=0;" edge="1" parent="1" source="ubF6ICqTXpGwGPpLcvCl-1" target="ubF6ICqTXpGwGPpLcvCl-3">
          <mxGeometry relative="1" as="geometry" />
        </mxCell>
        <mxCell id="ubF6ICqTXpGwGPpLcvCl-1" value="Begin" style="ellipse;whiteSpace=wrap;html=1;" vertex="1" parent="1">
          <mxGeometry x="215" y="60" width="120" height="80" as="geometry" />
        </mxCell>
        <mxCell id="ubF6ICqTXpGwGPpLcvCl-13" style="edgeStyle=orthogonalEdgeStyle;rounded=0;orthogonalLoop=1;jettySize=auto;html=1;entryX=0.5;entryY=0;entryDx=0;entryDy=0;" edge="1" parent="1" source="ubF6ICqTXpGwGPpLcvCl-3" target="ubF6ICqTXpGwGPpLcvCl-6">
          <mxGeometry relative="1" as="geometry" />
        </mxCell>
        <mxCell id="ubF6ICqTXpGwGPpLcvCl-3" value="&lt;pre&gt;&lt;div&gt;Lege lijst met &lt;/div&gt;&lt;div&gt;namen &lt;/div&gt;&lt;div&gt;initialiseren&lt;/div&gt;&lt;/pre&gt;" style="rounded=1;whiteSpace=wrap;html=1;" vertex="1" parent="1">
          <mxGeometry x="198" y="180" width="155" height="60" as="geometry" />
        </mxCell>
        <mxCell id="ubF6ICqTXpGwGPpLcvCl-8" style="edgeStyle=orthogonalEdgeStyle;rounded=0;orthogonalLoop=1;jettySize=auto;html=1;exitX=1;exitY=0.5;exitDx=0;exitDy=0;entryX=0;entryY=0.5;entryDx=0;entryDy=0;" edge="1" parent="1" source="ubF6ICqTXpGwGPpLcvCl-6" target="ubF6ICqTXpGwGPpLcvCl-7">
          <mxGeometry relative="1" as="geometry" />
        </mxCell>
        <mxCell id="ubF6ICqTXpGwGPpLcvCl-14" style="edgeStyle=orthogonalEdgeStyle;rounded=0;orthogonalLoop=1;jettySize=auto;html=1;entryX=0.5;entryY=0;entryDx=0;entryDy=0;" edge="1" parent="1" source="ubF6ICqTXpGwGPpLcvCl-6" target="ubF6ICqTXpGwGPpLcvCl-11">
          <mxGeometry relative="1" as="geometry" />
        </mxCell>
        <mxCell id="ubF6ICqTXpGwGPpLcvCl-6" value="&lt;pre&gt;&lt;div&gt;Zolang lijst minder &lt;/div&gt;&lt;div&gt;dan 3 namen heeft:&lt;/div&gt;&lt;/pre&gt;" style="rounded=1;whiteSpace=wrap;html=1;" vertex="1" parent="1">
          <mxGeometry x="190" y="270" width="170" height="60" as="geometry" />
        </mxCell>
        <mxCell id="ubF6ICqTXpGwGPpLcvCl-10" style="edgeStyle=orthogonalEdgeStyle;rounded=0;orthogonalLoop=1;jettySize=auto;html=1;entryX=0;entryY=0.5;entryDx=0;entryDy=0;" edge="1" parent="1" source="ubF6ICqTXpGwGPpLcvCl-7" target="ubF6ICqTXpGwGPpLcvCl-9">
          <mxGeometry relative="1" as="geometry" />
        </mxCell>
        <mxCell id="ubF6ICqTXpGwGPpLcvCl-7" value="&lt;pre&gt;&lt;div&gt;Vraag om &lt;/div&gt;&lt;div&gt;een nieuwe naam&lt;/div&gt;&lt;/pre&gt;" style="rhombus;whiteSpace=wrap;html=1;" vertex="1" parent="1">
          <mxGeometry x="410" y="240" width="140" height="120" as="geometry" />
        </mxCell>
        <mxCell id="ubF6ICqTXpGwGPpLcvCl-9" value="&lt;pre&gt;&lt;div&gt;Als de naam &lt;/div&gt;&lt;div&gt;uniek is, &lt;/div&gt;&lt;div&gt;voeg toe aan &lt;/div&gt;&lt;div&gt;de lijst&lt;br&gt;&lt;/div&gt;&lt;/pre&gt;" style="ellipse;whiteSpace=wrap;html=1;aspect=fixed;" vertex="1" parent="1">
          <mxGeometry x="610" y="240" width="120" height="120" as="geometry" />
        </mxCell>
        <mxCell id="ubF6ICqTXpGwGPpLcvCl-16" style="edgeStyle=orthogonalEdgeStyle;rounded=0;orthogonalLoop=1;jettySize=auto;html=1;entryX=0.5;entryY=0;entryDx=0;entryDy=0;" edge="1" parent="1" source="ubF6ICqTXpGwGPpLcvCl-11" target="ubF6ICqTXpGwGPpLcvCl-15">
          <mxGeometry relative="1" as="geometry" />
        </mxCell>
        <mxCell id="ubF6ICqTXpGwGPpLcvCl-11" value="&lt;pre&gt;&lt;div&gt;Als lijst 3 of meer &lt;/div&gt;&lt;div&gt;namen heeft:&lt;/div&gt;&lt;/pre&gt;" style="rounded=1;whiteSpace=wrap;html=1;" vertex="1" parent="1">
          <mxGeometry x="190.5" y="360" width="170" height="60" as="geometry" />
        </mxCell>
        <mxCell id="ubF6ICqTXpGwGPpLcvCl-22" style="edgeStyle=orthogonalEdgeStyle;rounded=0;orthogonalLoop=1;jettySize=auto;html=1;entryX=0.5;entryY=0;entryDx=0;entryDy=0;" edge="1" parent="1" source="ubF6ICqTXpGwGPpLcvCl-15" target="ubF6ICqTXpGwGPpLcvCl-17">
          <mxGeometry relative="1" as="geometry" />
        </mxCell>
        <mxCell id="ubF6ICqTXpGwGPpLcvCl-15" value="&lt;pre&gt;&lt;div&gt;Vraag of gebruiker nog een naam &lt;/div&gt;&lt;div&gt;wil toevoegen of &lt;/div&gt;&lt;div&gt;wil beginnen met loten&lt;/div&gt;&lt;/pre&gt;" style="rounded=1;whiteSpace=wrap;html=1;" vertex="1" parent="1">
          <mxGeometry x="145" y="450" width="265" height="60" as="geometry" />
        </mxCell>
        <mxCell id="ubF6ICqTXpGwGPpLcvCl-17" value="&lt;pre&gt;&lt;div&gt;Als gebruiker nog een naam wil &lt;/div&gt;&lt;div&gt;toevoegen, &lt;/div&gt;&lt;div&gt;ga terug naar de vorige stap&lt;/div&gt;&lt;/pre&gt;" style="rounded=1;whiteSpace=wrap;html=1;" vertex="1" parent="1">
          <mxGeometry x="138.75" y="540" width="277.5" height="70" as="geometry" />
        </mxCell>
        <mxCell id="ubF6ICqTXpGwGPpLcvCl-25" style="edgeStyle=orthogonalEdgeStyle;rounded=0;orthogonalLoop=1;jettySize=auto;html=1;entryX=0;entryY=0.5;entryDx=0;entryDy=0;" edge="1" parent="1" source="ubF6ICqTXpGwGPpLcvCl-23" target="ubF6ICqTXpGwGPpLcvCl-24">
          <mxGeometry relative="1" as="geometry" />
        </mxCell>
        <mxCell id="ubF6ICqTXpGwGPpLcvCl-28" style="edgeStyle=orthogonalEdgeStyle;rounded=0;orthogonalLoop=1;jettySize=auto;html=1;entryX=0.5;entryY=0;entryDx=0;entryDy=0;" edge="1" parent="1" source="ubF6ICqTXpGwGPpLcvCl-23" target="ubF6ICqTXpGwGPpLcvCl-26">
          <mxGeometry relative="1" as="geometry" />
        </mxCell>
        <mxCell id="ubF6ICqTXpGwGPpLcvCl-23" value="&lt;pre&gt;&lt;div&gt;Als gebruiker wil loten:&lt;/div&gt;&lt;/pre&gt;" style="rounded=1;whiteSpace=wrap;html=1;" vertex="1" parent="1">
          <mxGeometry x="138.75" y="640" width="277.5" height="70" as="geometry" />
        </mxCell>
        <mxCell id="ubF6ICqTXpGwGPpLcvCl-24" value="&lt;pre&gt;&lt;div&gt;Wijs namen willekeurig &lt;/div&gt;&lt;div&gt;toe, &lt;/div&gt;&lt;div&gt;zorg dat &lt;/div&gt;&lt;div&gt;niemand zijn &lt;/div&gt;&lt;div&gt;eigen naam krijgt&lt;/div&gt;&lt;/pre&gt;" style="rhombus;whiteSpace=wrap;html=1;" vertex="1" parent="1">
          <mxGeometry x="460" y="583.75" width="240" height="182.5" as="geometry" />
        </mxCell>
        <mxCell id="ubF6ICqTXpGwGPpLcvCl-30" style="edgeStyle=orthogonalEdgeStyle;rounded=0;orthogonalLoop=1;jettySize=auto;html=1;entryX=0.5;entryY=0;entryDx=0;entryDy=0;" edge="1" parent="1" source="ubF6ICqTXpGwGPpLcvCl-26" target="ubF6ICqTXpGwGPpLcvCl-29">
          <mxGeometry relative="1" as="geometry" />
        </mxCell>
        <mxCell id="ubF6ICqTXpGwGPpLcvCl-26" value="&lt;pre&gt;&lt;div&gt;Print de lijst met namen en &lt;/div&gt;&lt;div&gt;de toegewezen namen&lt;/div&gt;&lt;/pre&gt;" style="rounded=1;whiteSpace=wrap;html=1;" vertex="1" parent="1">
          <mxGeometry x="138.75" y="740" width="277.5" height="70" as="geometry" />
        </mxCell>
        <mxCell id="ubF6ICqTXpGwGPpLcvCl-29" value="&lt;pre&gt;&lt;div&gt;Einde&lt;/div&gt;&lt;/pre&gt;" style="ellipse;whiteSpace=wrap;html=1;" vertex="1" parent="1">
          <mxGeometry x="217.5" y="840" width="120" height="80" as="geometry" />
        </mxCell>
      </root>
    </mxGraphModel>
  </diagram>
</mxfile>
